<svg viewBox="0 0 24 22" fill="none" xmlns="http://www.w3.org/2000/svg">
    <path d="M23.814 11.468C23.9335 11.3387 23.9998 11.1691 23.9998 10.993C23.9998 10.8169 23.9335 10.6473 23.814 10.518L14.807 0.923998C14.5112 0.638904 14.1223 0.470227 13.712 0.448998L10.122 0.448998C9.764 0.448998 9.67 0.662998 9.915 0.923998L18.925 10.525C19.0434 10.6549 19.109 10.8243 19.109 11C19.109 11.1757 19.0434 11.3451 18.925 11.475L9.915 21.078C9.67 21.34 9.764 21.553 10.122 21.553H13.712C14.1222 21.5313 14.5109 21.3627 14.807 21.078L23.814 11.468ZM14.031 11.468C14.1494 11.3381 14.215 11.1687 14.215 10.993C14.215 10.8173 14.1494 10.6479 14.031 10.518L5.029 0.922998C4.73341 0.638124 4.34496 0.469465 3.935 0.447998L0.344997 0.447998C-0.0130026 0.447998 -0.108003 0.661998 0.136997 0.922998L9.144 10.524C9.26326 10.6534 9.32946 10.823 9.32946 10.999C9.32946 11.175 9.26326 11.3446 9.144 11.474L0.135998 21.077C-0.108002 21.339 -0.0140021 21.552 0.343998 21.552H3.934C4.34385 21.5301 4.73215 21.3615 5.028 21.077L14.031 11.468Z" fill="#313131" />
</svg>